<svg id="eEnCANs8JMc1" xmlns="http://www.w3.org/2000/svg" xmlns:xlink="http://www.w3.org/1999/xlink" viewBox="0 0 600 600" shape-rendering="geometricPrecision" text-rendering="geometricPrecision" project-id="54c4f0f9e62e41e59f30540811a79abe" export-id="fa66ab8f3f554ed689cf88d73c337f73" cached="false"><defs><radialGradient id="eEnCANs8JMc2-fill" cx="0" cy="0" r="0.5" spreadMethod="pad" gradientUnits="objectBoundingBox" gradientTransform="translate(0.5 0.5)"><stop id="eEnCANs8JMc2-fill-0" offset="0%" stop-color="#b64a4c"/><stop id="eEnCANs8JMc2-fill-1" offset="100%" stop-color="#49b5b3"/></radialGradient><radialGradient id="eEnCANs8JMc6-fill" cx="0" cy="0" r="0.5" spreadMethod="pad" gradientUnits="objectBoundingBox" gradientTransform="translate(0.5 0.5)"><stop id="eEnCANs8JMc6-fill-0" offset="0%" stop-color="#b64a4c"/><stop id="eEnCANs8JMc6-fill-1" offset="100%" stop-color="#49b5b3"/></radialGradient><radialGradient id="eEnCANs8JMc7-fill" cx="0" cy="0" r="0.5" spreadMethod="pad" gradientUnits="objectBoundingBox" gradientTransform="translate(0.5 0.5)"><stop id="eEnCANs8JMc7-fill-0" offset="0%" stop-color="#b64a4c"/><stop id="eEnCANs8JMc7-fill-1" offset="100%" stop-color="#49b5b3"/></radialGradient><radialGradient id="eEnCANs8JMc8-fill" cx="0" cy="0" r="0.5" spreadMethod="pad" gradientUnits="objectBoundingBox" gradientTransform="translate(0.5 0.5)"><stop id="eEnCANs8JMc8-fill-0" offset="0%" stop-color="#b64a4c"/><stop id="eEnCANs8JMc8-fill-1" offset="100%" stop-color="#49b5b3"/></radialGradient><radialGradient id="eEnCANs8JMc9-fill" cx="0" cy="0" r="0.5" spreadMethod="pad" gradientUnits="objectBoundingBox" gradientTransform="translate(0.5 0.5)"><stop id="eEnCANs8JMc9-fill-0" offset="0%" stop-color="#b64a4c"/><stop id="eEnCANs8JMc9-fill-1" offset="100%" stop-color="#49b5b3"/></radialGradient><radialGradient id="eEnCANs8JMc10-fill" cx="0" cy="0" r="0.5" spreadMethod="pad" gradientUnits="objectBoundingBox" gradientTransform="translate(0.5 0.5)"><stop id="eEnCANs8JMc10-fill-0" offset="0%" stop-color="#b64a4c"/><stop id="eEnCANs8JMc10-fill-1" offset="100%" stop-color="#49b5b3"/></radialGradient><radialGradient id="eEnCANs8JMc11-fill" cx="0" cy="0" r="0.5" spreadMethod="pad" gradientUnits="objectBoundingBox" gradientTransform="translate(0.5 0.5)"><stop id="eEnCANs8JMc11-fill-0" offset="0%" stop-color="#b64a4c"/><stop id="eEnCANs8JMc11-fill-1" offset="100%" stop-color="#49b5b3"/></radialGradient><radialGradient id="eEnCANs8JMc12-fill" cx="0" cy="0" r="0.5" spreadMethod="pad" gradientUnits="objectBoundingBox" gradientTransform="translate(0.5 0.5)"><stop id="eEnCANs8JMc12-fill-0" offset="0%" stop-color="#b64a4c"/><stop id="eEnCANs8JMc12-fill-1" offset="100%" stop-color="#49b5b3"/></radialGradient><radialGradient id="eEnCANs8JMc13-fill" cx="0" cy="0" r="0.5" spreadMethod="pad" gradientUnits="objectBoundingBox" gradientTransform="translate(0.5 0.5)"><stop id="eEnCANs8JMc13-fill-0" offset="0%" stop-color="#b64a4c"/><stop id="eEnCANs8JMc13-fill-1" offset="100%" stop-color="#49b5b3"/></radialGradient><radialGradient id="eEnCANs8JMc14-fill" cx="0" cy="0" r="0.5" spreadMethod="pad" gradientUnits="objectBoundingBox" gradientTransform="translate(0.5 0.5)"><stop id="eEnCANs8JMc14-fill-0" offset="0%" stop-color="#b64a4c"/><stop id="eEnCANs8JMc14-fill-1" offset="100%" stop-color="#49b5b3"/></radialGradient><radialGradient id="eEnCANs8JMc15-fill" cx="0" cy="0" r="0.5" spreadMethod="pad" gradientUnits="objectBoundingBox" gradientTransform="translate(0.5 0.5)"><stop id="eEnCANs8JMc15-fill-0" offset="0%" stop-color="#b64a4c"/><stop id="eEnCANs8JMc15-fill-1" offset="100%" stop-color="#49b5b3"/></radialGradient><radialGradient id="eEnCANs8JMc16-fill" cx="0" cy="0" r="0.5" spreadMethod="pad" gradientUnits="objectBoundingBox" gradientTransform="translate(0.5 0.5)"><stop id="eEnCANs8JMc16-fill-0" offset="0%" stop-color="#b64a4c"/><stop id="eEnCANs8JMc16-fill-1" offset="100%" stop-color="#49b5b3"/></radialGradient><radialGradient id="eEnCANs8JMc17-fill" cx="0" cy="0" r="0.5" spreadMethod="pad" gradientUnits="objectBoundingBox" gradientTransform="translate(0.5 0.5)"><stop id="eEnCANs8JMc17-fill-0" offset="0%" stop-color="#b64a4c"/><stop id="eEnCANs8JMc17-fill-1" offset="100%" stop-color="#49b5b3"/></radialGradient><radialGradient id="eEnCANs8JMc18-fill" cx="0" cy="0" r="0.5" spreadMethod="pad" gradientUnits="objectBoundingBox" gradientTransform="translate(0.5 0.5)"><stop id="eEnCANs8JMc18-fill-0" offset="0%" stop-color="#b64a4c"/><stop id="eEnCANs8JMc18-fill-1" offset="100%" stop-color="#49b5b3"/></radialGradient><radialGradient id="eEnCANs8JMc19-fill" cx="0" cy="0" r="0.5" spreadMethod="pad" gradientUnits="objectBoundingBox" gradientTransform="translate(0.5 0.5)"><stop id="eEnCANs8JMc19-fill-0" offset="0%" stop-color="#b64a4c"/><stop id="eEnCANs8JMc19-fill-1" offset="100%" stop-color="#49b5b3"/></radialGradient><radialGradient id="eEnCANs8JMc20-fill" cx="0" cy="0" r="0.5" spreadMethod="pad" gradientUnits="objectBoundingBox" gradientTransform="translate(0.5 0.5)"><stop id="eEnCANs8JMc20-fill-0" offset="0%" stop-color="#b64a4c"/><stop id="eEnCANs8JMc20-fill-1" offset="100%" stop-color="#49b5b3"/></radialGradient><radialGradient id="eEnCANs8JMc21-fill" cx="0" cy="0" r="0.5" spreadMethod="pad" gradientUnits="objectBoundingBox" gradientTransform="translate(0.5 0.5)"><stop id="eEnCANs8JMc21-fill-0" offset="0%" stop-color="#b64a4c"/><stop id="eEnCANs8JMc21-fill-1" offset="100%" stop-color="#49b5b3"/></radialGradient><radialGradient id="eEnCANs8JMc22-fill" cx="0" cy="0" r="0.5" spreadMethod="pad" gradientUnits="objectBoundingBox" gradientTransform="translate(0.5 0.5)"><stop id="eEnCANs8JMc22-fill-0" offset="0%" stop-color="#b64a4c"/><stop id="eEnCANs8JMc22-fill-1" offset="100%" stop-color="#49b5b3"/></radialGradient><radialGradient id="eEnCANs8JMc23-fill" cx="0" cy="0" r="0.5" spreadMethod="pad" gradientUnits="objectBoundingBox" gradientTransform="translate(0.5 0.5)"><stop id="eEnCANs8JMc23-fill-0" offset="0%" stop-color="#b64a4c"/><stop id="eEnCANs8JMc23-fill-1" offset="100%" stop-color="#49b5b3"/></radialGradient><radialGradient id="eEnCANs8JMc24-fill" cx="0" cy="0" r="0.5" spreadMethod="pad" gradientUnits="objectBoundingBox" gradientTransform="translate(0.5 0.5)"><stop id="eEnCANs8JMc24-fill-0" offset="0%" stop-color="#b64a4c"/><stop id="eEnCANs8JMc24-fill-1" offset="100%" stop-color="#49b5b3"/></radialGradient><radialGradient id="eEnCANs8JMc25-fill" cx="0" cy="0" r="0.5" spreadMethod="pad" gradientUnits="objectBoundingBox" gradientTransform="translate(0.5 0.5)"><stop id="eEnCANs8JMc25-fill-0" offset="0%" stop-color="#b64a4c"/><stop id="eEnCANs8JMc25-fill-1" offset="100%" stop-color="#49b5b3"/></radialGradient><radialGradient id="eEnCANs8JMc26-fill" cx="0" cy="0" r="0.5" spreadMethod="pad" gradientUnits="objectBoundingBox" gradientTransform="translate(0.5 0.5)"><stop id="eEnCANs8JMc26-fill-0" offset="0%" stop-color="#b64a4c"/><stop id="eEnCANs8JMc26-fill-1" offset="100%" stop-color="#49b5b3"/></radialGradient><radialGradient id="eEnCANs8JMc27-fill" cx="0" cy="0" r="0.5" spreadMethod="pad" gradientUnits="objectBoundingBox" gradientTransform="translate(0.5 0.5)"><stop id="eEnCANs8JMc27-fill-0" offset="0%" stop-color="#b64a4c"/><stop id="eEnCANs8JMc27-fill-1" offset="100%" stop-color="#49b5b3"/></radialGradient><radialGradient id="eEnCANs8JMc28-fill" cx="0" cy="0" r="0.5" spreadMethod="pad" gradientUnits="objectBoundingBox" gradientTransform="translate(0.5 0.5)"><stop id="eEnCANs8JMc28-fill-0" offset="0%" stop-color="#b64a4c"/><stop id="eEnCANs8JMc28-fill-1" offset="100%" stop-color="#49b5b3"/></radialGradient><radialGradient id="eEnCANs8JMc29-fill" cx="0" cy="0" r="0.5" spreadMethod="pad" gradientUnits="objectBoundingBox" gradientTransform="translate(0.5 0.5)"><stop id="eEnCANs8JMc29-fill-0" offset="0%" stop-color="#b64a4c"/><stop id="eEnCANs8JMc29-fill-1" offset="100%" stop-color="#49b5b3"/></radialGradient><radialGradient id="eEnCANs8JMc30-fill" cx="0" cy="0" r="0.5" spreadMethod="pad" gradientUnits="objectBoundingBox" gradientTransform="translate(0.5 0.5)"><stop id="eEnCANs8JMc30-fill-0" offset="0%" stop-color="#b64a4c"/><stop id="eEnCANs8JMc30-fill-1" offset="100%" stop-color="#49b5b3"/></radialGradient></defs><path d="" transform="translate(.000001 0)" fill="url(#eEnCANs8JMc2-fill)" stroke="#b64a4c" stroke-width="1.2"/><g transform="matrix(1.3 0 0 1.3-38.668943-15.472322)"><path d="M105.679688,50.714844c1.458009.862269,5.032032,3.603666,7.445312,5.847656C116.315075,59.637192,116.315075,59.637192,120,62c0,.66,0,1.32,0,2c.66,0,1.32,0,2,0c0,.66,0,1.32,0,2c.66,0,1.32,0,2,0c1.339844,1.292969,1.339844,1.292969,2.9375,3.1875.620039.732188,1.240078,1.464375,1.878906,2.21875C129.536992,72.262188,130.257578,73.118125,131,74c.854648.979688,1.709297,1.959375,2.589844,2.96875C139.970071,84.311048,145.638492,91.881146,151,100c.60457.890742,1.209141,1.781484,1.832031,2.699219c4.729978,7.143013,8.53323,14.662943,12.237793,22.371094.840275,1.743184,1.698619,3.477629,2.559082,5.210937C188.232166,172.886425,192.99898,225.057318,183,271c-.163389.789712-.326777,1.579424-.495117,2.393066C178.342276,293.34819,171.660492,312.053312,162,330c-.513047.979688-1.026094,1.959375-1.554687,2.96875-2.744658,5.162924-5.682801,10.208545-8.695313,15.21875-.665156,1.107305-1.330312,2.214609-2.015625,3.355469-.858516,1.21623-.858516,1.21623-1.734375,2.457031-.66,0-1.32,0-2,0-.2475.705117-.495,1.410234-.75,2.136719-1.411037,3.232155-3.175073,5.82657-5.25,8.675781-.70125.97582-1.4025,1.951641-2.125,2.957031-.61875.736055-1.2375,1.47211-1.875,2.230469-.66,0-1.32,0-2,0-.40968.890782-.40968.890782-.827637,1.799561-1.136313,2.132775-2.293949,3.643303-3.930175,5.40747-.539634.583543-1.079268,1.167085-1.635254,1.768311-.857308.909393-.857308.909393-1.731934,1.837158-.874709.935497-.874709.935497-1.76709,1.889893-3.662663,3.878084-7.407975,7.561198-11.521972,10.965576-1.643129,1.328638-1.643129,1.328638-3.171875,3.007812C108,398,108,398,106,398c0,.66,0,1.32,0,2-1.474365,1.353516-1.474365,1.353516-3.558594,2.90625-.769812.574116-1.539624,1.148232-2.332763,1.739746-.840227.611821-1.680455,1.223643-2.546143,1.854004-.860208.628579-1.720415,1.257158-2.606689,1.904785C82.091031,417.672718,68.354168,425.299585,54,432c-.691904.3271-1.383809.654199-2.09668.991211-38.972338,18.182361-85.330011,24.545145-127.736328,16.418945-2.090239-.395629-4.182373-.738536-6.284179-1.066406C-111.475503,443.460387,-138.527241,430.965246,-164,416c0-.66,0-1.32,0-2-1.98-.66-3.96-1.32-6-2c0-.66,0-1.32,0-2-1.026738-.340312-1.026738-.340312-2.074219-.6875-3.670963-1.646787-6.579703-3.847612-9.738281-6.3125-.59748-.451172-1.194961-.902344-1.810547-1.367187-1.500429-1.159189-2.944198-2.390952-4.376953-3.632813c0-.66,0-1.32,0-2-.569685-.245889-1.13937-.491777-1.726318-.745117-4.633308-2.5572-8.132632-6.778196-11.836182-10.504883-.899524-.903713-1.799048-1.807427-2.72583-2.738525C-211.124245,375.059519,-217.341073,367.930435,-223,360c-.434414-.60022-.868828-1.200439-1.316406-1.818848C-232,347.532207,-232,347.532207,-232,345c-.66,0-1.32,0-2,0-3.0625-6.125-3.0625-6.125-4.017334-8.04126-1.580502-3.16925-3.173679-6.329651-4.795166-9.478271C-247.074689,319.155881,-250.709857,310.746505,-254,302c-.315176-.81646-.630352-1.63292-.955078-2.474121-2.575189-6.82425-4.503373-13.678632-6.169922-20.775879-.259343-1.096106-.518687-2.192212-.785889-3.321533C-263.789379,267.30593,-265.241769,259.311001,-266,251c-.10957-1.046719-.219141-2.093437-.332031-3.171875C-269.983534,207.126036,-264.227869,163.391272,-245,127c.67555-1.366039,1.345942-2.734639,2.011719-4.105469c3.221192-6.622703,6.448294-12.99897,10.703125-19.035156c1.462151-2.046598,1.462151-2.046598,3.097656-5.171875C-219.347482,81.144845,-202.36635,61.694501,-186,50c.66,0,1.32,0,2,0c0-.66,0-1.32,0-2c1.32251-1.169922,1.32251-1.169922,3.191406-2.46875.689488-.48364,1.378975-.96728,2.089356-1.465576.752973-.516673,1.505947-1.033345,2.281738-1.565674.773599-.535364,1.547197-1.070728,2.344238-1.622314c1.597126-1.102498,3.196433-2.201843,4.797852-3.298096C-167.249459,36.171665,-161.022806,33.440852,-159,32c8.892072-6.244398,14.024395-9.634191,23.930664-14.067383c1.718685-.774584,3.423349-1.580188,5.124024-2.393554C-116.873802,9.30129,-103.092663,5.179725,-89,2c.877852-.203672,1.755703-.407344,2.660156-.617187C-58.799551,-4.594213,-27.621105,-5.235783,0,0c.674341.127456,1.348682.254912,2.043457.38623C18.159869,3.509846,34.062832,8.14608,49,15c.814526.367222,1.629053.734443,2.468262,1.112793c17.047215,7.722038,32.396392,16.699399,47.211426,28.109863C100.406311,45.545238,102.190324,46.793549,104,48c0,.66,0,1.32,0,2c.554297.235898.221681-.147427,1.679688.714844M-27,114c-1.096992.256523-2.193984.513047-3.324219.777344C-43.051911,118.098231,-55.427047,123.093928,-66,131c-.895898.621328-1.791797,1.242656-2.714844,1.882813C-80.749594,141.454211,-92.375408,152.213418,-100,165c0,.66,0,1.32,0,2-.66,0-1.32,0-2,0-2.643987,3.801189-4.769118,7.945165-7,12-.366094.658389-.732187,1.316777-1.109375,1.995117C-115.506299,190.740077,-120.198974,200.521061,-124,211c-.232515.622617-.465029,1.245234-.70459,1.886719-7.979641,21.541207-12.581951,44.476153-17.563476,66.855957-.902064,4.014455-1.82208,8.024654-2.743653,12.034668-.178505.77741-.35701,1.554821-.540924,2.355789-.720678,3.138453-1.441388,6.276898-2.164154,9.414871C-154.062145,324.581901,-154.062145,324.581901,-150,345c5.084592,3.940559,10.859318,3.58964,17,3c15.787187-2.576469,31.90584-14.82417,41.230469-27.320312C-82.231715,306.236106,-79.659383,288.639835,-76,272c5.272539.823339,10.403715,2.020369,15.585938,3.28125C-34.367453,280.764747,-7.720924,276.825201,15,263c5.680206-3.759482,5.680206-3.759482,11-8c0-.66,0-1.32,0-2c.66,0,1.32,0,2,0c0-.66,0-1.32,0-2c.66,0,1.32,0,2,0c0-.66,0-1.32,0-2c.66,0,1.32,0,2,0c0-.66,0-1.32,0-2c.66,0,1.32,0,2,0c19.699112-23.104349,25.746932-52.296558,24-82-1.376828-10.767223-4.965443-23.510018-12-32-.66,0-1.32,0-2,0-.20625-.53625-.625-1.625-.625-1.625s-4.423194-5.968636-7.375-8.375c-.66,0-1.32,0-2,0c0-.66,0-1.32,0-2-18.889162-10.348849-39.987581-11.922588-61-7Z" transform="translate(300.179346 17.796173)" paint-order="markers fill stroke" fill="#b64a4c" stroke="#b64a4c" stroke-linecap="round"/><path d="M0,0C5.596979,3.666986,8.503477,7.475158,10,14c.54806,3.000763.835967,5.955129,1,9c.04125.724453.0825,1.448906.125,2.195313C11.732249,47.587637,6.088959,70.706621,-7,89c-.763125,1.0725-1.52625,2.145-2.3125,3.25-7.809998,7.991626-15.810474,11.876884-26.875,12.71875-6.155723.068397-12.786827-1.325137-17.8125-4.96875-1.586352-6.045502-.425363-10.96621,1.0625-16.9375.226794-.950764.453589-1.901528.687256-2.881104C-51.514385,77.117275,-50.758875,74.058496,-50,71c.252656-1.03125.505313-2.0625.765625-3.125c1.489239-6.078527,3.010067-12.14823,4.558594-18.211914.601897-2.371926,1.188624-4.746892,1.769531-7.124023C-40.983967,34.896439,-38.532902,28.036686,-35,21c.579523-1.203755,1.157563-2.408225,1.734375-3.613281c7.343699-15.14308,7.343699-15.14308,14.984375-18.664063C-12.332625,-3.161754,-5.590042,-2.732909,0,0Z" transform="translate(286.790775 162.568167)" fill="#b64a4c" stroke="#b64a4c"/><path d="" fill="url(#eEnCANs8JMc6-fill)" stroke="#b64a4c"/><path d="" fill="url(#eEnCANs8JMc7-fill)" stroke="#b64a4c"/><path d="" fill="url(#eEnCANs8JMc8-fill)" stroke="#b64a4c"/><path d="" fill="url(#eEnCANs8JMc9-fill)" stroke="#b64a4c"/><path d="" fill="url(#eEnCANs8JMc10-fill)" stroke="#b64a4c"/><path d="" fill="url(#eEnCANs8JMc11-fill)" stroke="#b64a4c"/><path d="" fill="url(#eEnCANs8JMc12-fill)" stroke="#b64a4c"/><path d="" fill="url(#eEnCANs8JMc13-fill)" stroke="#b64a4c"/><path d="" fill="url(#eEnCANs8JMc14-fill)" stroke="#b64a4c"/><path d="" fill="url(#eEnCANs8JMc15-fill)" stroke="#b64a4c"/><path d="" fill="url(#eEnCANs8JMc16-fill)" stroke="#b64a4c"/><path d="" fill="url(#eEnCANs8JMc17-fill)" stroke="#b64a4c"/><path d="" fill="url(#eEnCANs8JMc18-fill)" stroke="#b64a4c"/><path d="" fill="url(#eEnCANs8JMc19-fill)" stroke="#b64a4c"/><path d="" fill="url(#eEnCANs8JMc20-fill)" stroke="#b64a4c"/><path d="" fill="url(#eEnCANs8JMc21-fill)" stroke="#b64a4c"/><path d="" fill="url(#eEnCANs8JMc22-fill)" stroke="#b64a4c"/><path d="" fill="url(#eEnCANs8JMc23-fill)" stroke="#b64a4c"/><path d="" fill="url(#eEnCANs8JMc24-fill)" stroke="#b64a4c"/><path d="" fill="url(#eEnCANs8JMc25-fill)" stroke="#b64a4c"/><path d="" fill="url(#eEnCANs8JMc26-fill)" stroke="#b64a4c"/><path d="" fill="url(#eEnCANs8JMc27-fill)" stroke="#b64a4c"/><path d="" fill="url(#eEnCANs8JMc28-fill)" stroke="#b64a4c"/><path d="" fill="url(#eEnCANs8JMc29-fill)" stroke="#b64a4c"/><path d="" fill="url(#eEnCANs8JMc30-fill)" stroke="#b64a4c"/></g></svg>
